<mxfile host="app.diagrams.net" modified="2023-04-27T13:46:35.754Z" agent="Mozilla/5.0 (Windows NT 10.0; Win64; x64; rv:109.0) Gecko/20100101 Firefox/112.0" etag="__WmDkVNCwDtxHJOx95O" version="21.2.3" type="device">
  <diagram name="Page-1" id="DTLzjxHz0AVBki_nHCtA">
    <mxGraphModel dx="2193" dy="3123" grid="1" gridSize="10" guides="1" tooltips="1" connect="1" arrows="1" fold="1" page="1" pageScale="1" pageWidth="827" pageHeight="1169" math="0" shadow="0">
      <root>
        <mxCell id="0" />
        <mxCell id="1" parent="0" />
        <mxCell id="yGFAPYOFmnMAALgUmyOV-6" value="&lt;div&gt;Musiques&lt;/div&gt;" style="swimlane;fontStyle=0;childLayout=stackLayout;horizontal=1;startSize=30;horizontalStack=0;resizeParent=1;resizeParentMax=0;resizeLast=0;collapsible=1;marginBottom=0;whiteSpace=wrap;html=1;" parent="1" vertex="1">
          <mxGeometry x="-140" y="-1210" width="140" height="180" as="geometry" />
        </mxCell>
        <mxCell id="yGFAPYOFmnMAALgUmyOV-7" value="ID_M" style="text;strokeColor=none;fillColor=none;align=left;verticalAlign=middle;spacingLeft=4;spacingRight=4;overflow=hidden;points=[[0,0.5],[1,0.5]];portConstraint=eastwest;rotatable=0;whiteSpace=wrap;html=1;" parent="yGFAPYOFmnMAALgUmyOV-6" vertex="1">
          <mxGeometry y="30" width="140" height="30" as="geometry" />
        </mxCell>
        <mxCell id="yGFAPYOFmnMAALgUmyOV-8" value="TYPE -mp3, wav, flac)" style="text;strokeColor=none;fillColor=none;align=left;verticalAlign=middle;spacingLeft=4;spacingRight=4;overflow=hidden;points=[[0,0.5],[1,0.5]];portConstraint=eastwest;rotatable=0;whiteSpace=wrap;html=1;" parent="yGFAPYOFmnMAALgUmyOV-6" vertex="1">
          <mxGeometry y="60" width="140" height="30" as="geometry" />
        </mxCell>
        <mxCell id="yGFAPYOFmnMAALgUmyOV-9" value="NAME" style="text;strokeColor=none;fillColor=none;align=left;verticalAlign=middle;spacingLeft=4;spacingRight=4;overflow=hidden;points=[[0,0.5],[1,0.5]];portConstraint=eastwest;rotatable=0;whiteSpace=wrap;html=1;" parent="yGFAPYOFmnMAALgUmyOV-6" vertex="1">
          <mxGeometry y="90" width="140" height="30" as="geometry" />
        </mxCell>
        <mxCell id="yGFAPYOFmnMAALgUmyOV-26" value="AUTHOR" style="text;strokeColor=none;fillColor=none;align=left;verticalAlign=middle;spacingLeft=4;spacingRight=4;overflow=hidden;points=[[0,0.5],[1,0.5]];portConstraint=eastwest;rotatable=0;whiteSpace=wrap;html=1;" parent="yGFAPYOFmnMAALgUmyOV-6" vertex="1">
          <mxGeometry y="120" width="140" height="30" as="geometry" />
        </mxCell>
        <mxCell id="yGFAPYOFmnMAALgUmyOV-35" value="DATE" style="text;strokeColor=none;fillColor=none;align=left;verticalAlign=middle;spacingLeft=4;spacingRight=4;overflow=hidden;points=[[0,0.5],[1,0.5]];portConstraint=eastwest;rotatable=0;whiteSpace=wrap;html=1;" parent="yGFAPYOFmnMAALgUmyOV-6" vertex="1">
          <mxGeometry y="150" width="140" height="30" as="geometry" />
        </mxCell>
        <mxCell id="yGFAPYOFmnMAALgUmyOV-10" value="ALBUMS" style="swimlane;fontStyle=0;childLayout=stackLayout;horizontal=1;startSize=30;horizontalStack=0;resizeParent=1;resizeParentMax=0;resizeLast=0;collapsible=1;marginBottom=0;whiteSpace=wrap;html=1;" parent="1" vertex="1">
          <mxGeometry x="353" y="-1040" width="140" height="150" as="geometry" />
        </mxCell>
        <mxCell id="yGFAPYOFmnMAALgUmyOV-11" value="&lt;div&gt;ID_A&lt;/div&gt;" style="text;strokeColor=none;fillColor=none;align=left;verticalAlign=middle;spacingLeft=4;spacingRight=4;overflow=hidden;points=[[0,0.5],[1,0.5]];portConstraint=eastwest;rotatable=0;whiteSpace=wrap;html=1;" parent="yGFAPYOFmnMAALgUmyOV-10" vertex="1">
          <mxGeometry y="30" width="140" height="30" as="geometry" />
        </mxCell>
        <mxCell id="yGFAPYOFmnMAALgUmyOV-12" value="NAME" style="text;strokeColor=none;fillColor=none;align=left;verticalAlign=middle;spacingLeft=4;spacingRight=4;overflow=hidden;points=[[0,0.5],[1,0.5]];portConstraint=eastwest;rotatable=0;whiteSpace=wrap;html=1;" parent="yGFAPYOFmnMAALgUmyOV-10" vertex="1">
          <mxGeometry y="60" width="140" height="30" as="geometry" />
        </mxCell>
        <mxCell id="yGFAPYOFmnMAALgUmyOV-13" value="AUTHOR" style="text;strokeColor=none;fillColor=none;align=left;verticalAlign=middle;spacingLeft=4;spacingRight=4;overflow=hidden;points=[[0,0.5],[1,0.5]];portConstraint=eastwest;rotatable=0;whiteSpace=wrap;html=1;" parent="yGFAPYOFmnMAALgUmyOV-10" vertex="1">
          <mxGeometry y="90" width="140" height="30" as="geometry" />
        </mxCell>
        <mxCell id="yGFAPYOFmnMAALgUmyOV-32" value="DATE" style="text;strokeColor=none;fillColor=none;align=left;verticalAlign=middle;spacingLeft=4;spacingRight=4;overflow=hidden;points=[[0,0.5],[1,0.5]];portConstraint=eastwest;rotatable=0;whiteSpace=wrap;html=1;" parent="yGFAPYOFmnMAALgUmyOV-10" vertex="1">
          <mxGeometry y="120" width="140" height="30" as="geometry" />
        </mxCell>
        <mxCell id="yGFAPYOFmnMAALgUmyOV-14" value="PLAYLISTS" style="swimlane;fontStyle=0;childLayout=stackLayout;horizontal=1;startSize=30;horizontalStack=0;resizeParent=1;resizeParentMax=0;resizeLast=0;collapsible=1;marginBottom=0;whiteSpace=wrap;html=1;" parent="1" vertex="1">
          <mxGeometry x="720" y="-1220" width="140" height="120" as="geometry" />
        </mxCell>
        <mxCell id="yGFAPYOFmnMAALgUmyOV-15" value="&lt;div&gt;ID_P&lt;/div&gt;" style="text;strokeColor=none;fillColor=none;align=left;verticalAlign=middle;spacingLeft=4;spacingRight=4;overflow=hidden;points=[[0,0.5],[1,0.5]];portConstraint=eastwest;rotatable=0;whiteSpace=wrap;html=1;" parent="yGFAPYOFmnMAALgUmyOV-14" vertex="1">
          <mxGeometry y="30" width="140" height="30" as="geometry" />
        </mxCell>
        <mxCell id="yGFAPYOFmnMAALgUmyOV-16" value="NAME" style="text;strokeColor=none;fillColor=none;align=left;verticalAlign=middle;spacingLeft=4;spacingRight=4;overflow=hidden;points=[[0,0.5],[1,0.5]];portConstraint=eastwest;rotatable=0;whiteSpace=wrap;html=1;" parent="yGFAPYOFmnMAALgUmyOV-14" vertex="1">
          <mxGeometry y="60" width="140" height="30" as="geometry" />
        </mxCell>
        <mxCell id="yGFAPYOFmnMAALgUmyOV-17" value="AUTHOR" style="text;strokeColor=none;fillColor=none;align=left;verticalAlign=middle;spacingLeft=4;spacingRight=4;overflow=hidden;points=[[0,0.5],[1,0.5]];portConstraint=eastwest;rotatable=0;whiteSpace=wrap;html=1;" parent="yGFAPYOFmnMAALgUmyOV-14" vertex="1">
          <mxGeometry y="90" width="140" height="30" as="geometry" />
        </mxCell>
        <mxCell id="yGFAPYOFmnMAALgUmyOV-22" value="FORUMS" style="swimlane;fontStyle=0;childLayout=stackLayout;horizontal=1;startSize=30;horizontalStack=0;resizeParent=1;resizeParentMax=0;resizeLast=0;collapsible=1;marginBottom=0;whiteSpace=wrap;html=1;" parent="1" vertex="1">
          <mxGeometry x="360" y="-320" width="140" height="120" as="geometry" />
        </mxCell>
        <mxCell id="yGFAPYOFmnMAALgUmyOV-23" value="ID_F" style="text;strokeColor=none;fillColor=none;align=left;verticalAlign=middle;spacingLeft=4;spacingRight=4;overflow=hidden;points=[[0,0.5],[1,0.5]];portConstraint=eastwest;rotatable=0;whiteSpace=wrap;html=1;" parent="yGFAPYOFmnMAALgUmyOV-22" vertex="1">
          <mxGeometry y="30" width="140" height="30" as="geometry" />
        </mxCell>
        <mxCell id="yGFAPYOFmnMAALgUmyOV-24" value="NAME" style="text;strokeColor=none;fillColor=none;align=left;verticalAlign=middle;spacingLeft=4;spacingRight=4;overflow=hidden;points=[[0,0.5],[1,0.5]];portConstraint=eastwest;rotatable=0;whiteSpace=wrap;html=1;" parent="yGFAPYOFmnMAALgUmyOV-22" vertex="1">
          <mxGeometry y="60" width="140" height="30" as="geometry" />
        </mxCell>
        <mxCell id="yGFAPYOFmnMAALgUmyOV-47" value="NBR_SUJETS" style="text;strokeColor=none;fillColor=none;align=left;verticalAlign=middle;spacingLeft=4;spacingRight=4;overflow=hidden;points=[[0,0.5],[1,0.5]];portConstraint=eastwest;rotatable=0;whiteSpace=wrap;html=1;" parent="yGFAPYOFmnMAALgUmyOV-22" vertex="1">
          <mxGeometry y="90" width="140" height="30" as="geometry" />
        </mxCell>
        <mxCell id="yGFAPYOFmnMAALgUmyOV-27" value="COMPTES" style="swimlane;fontStyle=0;childLayout=stackLayout;horizontal=1;startSize=30;horizontalStack=0;resizeParent=1;resizeParentMax=0;resizeLast=0;collapsible=1;marginBottom=0;whiteSpace=wrap;html=1;" parent="1" vertex="1">
          <mxGeometry x="360" y="-660" width="140" height="150" as="geometry" />
        </mxCell>
        <mxCell id="yGFAPYOFmnMAALgUmyOV-28" value="ID_C" style="text;strokeColor=none;fillColor=none;align=left;verticalAlign=middle;spacingLeft=4;spacingRight=4;overflow=hidden;points=[[0,0.5],[1,0.5]];portConstraint=eastwest;rotatable=0;whiteSpace=wrap;html=1;" parent="yGFAPYOFmnMAALgUmyOV-27" vertex="1">
          <mxGeometry y="30" width="140" height="30" as="geometry" />
        </mxCell>
        <mxCell id="yGFAPYOFmnMAALgUmyOV-29" value="FIRSTNAME" style="text;strokeColor=none;fillColor=none;align=left;verticalAlign=middle;spacingLeft=4;spacingRight=4;overflow=hidden;points=[[0,0.5],[1,0.5]];portConstraint=eastwest;rotatable=0;whiteSpace=wrap;html=1;" parent="yGFAPYOFmnMAALgUmyOV-27" vertex="1">
          <mxGeometry y="60" width="140" height="30" as="geometry" />
        </mxCell>
        <mxCell id="yGFAPYOFmnMAALgUmyOV-30" value="NICKNAME" style="text;strokeColor=none;fillColor=none;align=left;verticalAlign=middle;spacingLeft=4;spacingRight=4;overflow=hidden;points=[[0,0.5],[1,0.5]];portConstraint=eastwest;rotatable=0;whiteSpace=wrap;html=1;" parent="yGFAPYOFmnMAALgUmyOV-27" vertex="1">
          <mxGeometry y="90" width="140" height="30" as="geometry" />
        </mxCell>
        <mxCell id="yGFAPYOFmnMAALgUmyOV-31" value="BIRTHDAY" style="text;strokeColor=none;fillColor=none;align=left;verticalAlign=middle;spacingLeft=4;spacingRight=4;overflow=hidden;points=[[0,0.5],[1,0.5]];portConstraint=eastwest;rotatable=0;whiteSpace=wrap;html=1;" parent="yGFAPYOFmnMAALgUmyOV-27" vertex="1">
          <mxGeometry y="120" width="140" height="30" as="geometry" />
        </mxCell>
        <mxCell id="yGFAPYOFmnMAALgUmyOV-41" value="Sujet" style="swimlane;fontStyle=0;childLayout=stackLayout;horizontal=1;startSize=30;horizontalStack=0;resizeParent=1;resizeParentMax=0;resizeLast=0;collapsible=1;marginBottom=0;whiteSpace=wrap;html=1;" parent="1" vertex="1">
          <mxGeometry x="100" y="-130" width="140" height="120" as="geometry" />
        </mxCell>
        <mxCell id="yGFAPYOFmnMAALgUmyOV-42" value="ID_S" style="text;strokeColor=none;fillColor=none;align=left;verticalAlign=middle;spacingLeft=4;spacingRight=4;overflow=hidden;points=[[0,0.5],[1,0.5]];portConstraint=eastwest;rotatable=0;whiteSpace=wrap;html=1;" parent="yGFAPYOFmnMAALgUmyOV-41" vertex="1">
          <mxGeometry y="30" width="140" height="30" as="geometry" />
        </mxCell>
        <mxCell id="yGFAPYOFmnMAALgUmyOV-43" value="NAME" style="text;strokeColor=none;fillColor=none;align=left;verticalAlign=middle;spacingLeft=4;spacingRight=4;overflow=hidden;points=[[0,0.5],[1,0.5]];portConstraint=eastwest;rotatable=0;whiteSpace=wrap;html=1;" parent="yGFAPYOFmnMAALgUmyOV-41" vertex="1">
          <mxGeometry y="60" width="140" height="30" as="geometry" />
        </mxCell>
        <mxCell id="yGFAPYOFmnMAALgUmyOV-44" value="DATE" style="text;strokeColor=none;fillColor=none;align=left;verticalAlign=middle;spacingLeft=4;spacingRight=4;overflow=hidden;points=[[0,0.5],[1,0.5]];portConstraint=eastwest;rotatable=0;whiteSpace=wrap;html=1;" parent="yGFAPYOFmnMAALgUmyOV-41" vertex="1">
          <mxGeometry y="90" width="140" height="30" as="geometry" />
        </mxCell>
        <mxCell id="yGFAPYOFmnMAALgUmyOV-83" value="&lt;font style=&quot;font-size: 26px;&quot;&gt;Fonctionnalité principale&lt;br&gt;&lt;/font&gt;" style="text;html=1;align=center;verticalAlign=middle;resizable=0;points=[];autosize=1;strokeColor=none;fillColor=none;" parent="1" vertex="1">
          <mxGeometry x="220" y="-1330" width="300" height="40" as="geometry" />
        </mxCell>
        <mxCell id="yGFAPYOFmnMAALgUmyOV-84" value="&lt;font style=&quot;font-size: 26px;&quot;&gt;Fonctionnalité secondaire&lt;br&gt;&lt;/font&gt;" style="text;html=1;align=center;verticalAlign=middle;resizable=0;points=[];autosize=1;strokeColor=none;fillColor=none;" parent="1" vertex="1">
          <mxGeometry x="427.64" y="-80" width="320" height="40" as="geometry" />
        </mxCell>
        <mxCell id="Cas5xVYIjRuZcFgZDSWn-13" value="Adjoindre" style="swimlane;fontStyle=0;childLayout=stackLayout;horizontal=1;startSize=30;horizontalStack=0;resizeParent=1;resizeParentMax=0;resizeLast=0;collapsible=1;marginBottom=0;whiteSpace=wrap;html=1;fontSize=16;rounded=1;" vertex="1" parent="1">
          <mxGeometry x="310" y="-1210" width="117.64" height="90" as="geometry" />
        </mxCell>
        <mxCell id="Cas5xVYIjRuZcFgZDSWn-14" value="ID_M" style="text;strokeColor=none;fillColor=none;align=left;verticalAlign=middle;spacingLeft=4;spacingRight=4;overflow=hidden;points=[[0,0.5],[1,0.5]];portConstraint=eastwest;rotatable=0;whiteSpace=wrap;html=1;fontSize=16;" vertex="1" parent="Cas5xVYIjRuZcFgZDSWn-13">
          <mxGeometry y="30" width="117.64" height="30" as="geometry" />
        </mxCell>
        <mxCell id="Cas5xVYIjRuZcFgZDSWn-15" value="ID_P" style="text;strokeColor=none;fillColor=none;align=left;verticalAlign=middle;spacingLeft=4;spacingRight=4;overflow=hidden;points=[[0,0.5],[1,0.5]];portConstraint=eastwest;rotatable=0;whiteSpace=wrap;html=1;fontSize=16;" vertex="1" parent="Cas5xVYIjRuZcFgZDSWn-13">
          <mxGeometry y="60" width="117.64" height="30" as="geometry" />
        </mxCell>
        <mxCell id="Cas5xVYIjRuZcFgZDSWn-17" value="Générer" style="swimlane;fontStyle=0;childLayout=stackLayout;horizontal=1;startSize=30;horizontalStack=0;resizeParent=1;resizeParentMax=0;resizeLast=0;collapsible=1;marginBottom=0;whiteSpace=wrap;html=1;fontSize=16;rounded=1;" vertex="1" parent="1">
          <mxGeometry x="730" y="-900" width="140" height="90" as="geometry" />
        </mxCell>
        <mxCell id="Cas5xVYIjRuZcFgZDSWn-18" value="ID_P" style="text;strokeColor=none;fillColor=none;align=left;verticalAlign=middle;spacingLeft=4;spacingRight=4;overflow=hidden;points=[[0,0.5],[1,0.5]];portConstraint=eastwest;rotatable=0;whiteSpace=wrap;html=1;fontSize=16;" vertex="1" parent="Cas5xVYIjRuZcFgZDSWn-17">
          <mxGeometry y="30" width="140" height="30" as="geometry" />
        </mxCell>
        <mxCell id="Cas5xVYIjRuZcFgZDSWn-19" value="ID_C" style="text;strokeColor=none;fillColor=none;align=left;verticalAlign=middle;spacingLeft=4;spacingRight=4;overflow=hidden;points=[[0,0.5],[1,0.5]];portConstraint=eastwest;rotatable=0;whiteSpace=wrap;html=1;fontSize=16;" vertex="1" parent="Cas5xVYIjRuZcFgZDSWn-17">
          <mxGeometry y="60" width="140" height="30" as="geometry" />
        </mxCell>
        <mxCell id="Cas5xVYIjRuZcFgZDSWn-21" value="&lt;div&gt;Possèder&lt;/div&gt;" style="swimlane;fontStyle=0;childLayout=stackLayout;horizontal=1;startSize=30;horizontalStack=0;resizeParent=1;resizeParentMax=0;resizeLast=0;collapsible=1;marginBottom=0;whiteSpace=wrap;html=1;fontSize=16;rounded=1;" vertex="1" parent="1">
          <mxGeometry x="-140" y="-900" width="140" height="90" as="geometry" />
        </mxCell>
        <mxCell id="Cas5xVYIjRuZcFgZDSWn-22" value="ID_M" style="text;strokeColor=none;fillColor=none;align=left;verticalAlign=middle;spacingLeft=4;spacingRight=4;overflow=hidden;points=[[0,0.5],[1,0.5]];portConstraint=eastwest;rotatable=0;whiteSpace=wrap;html=1;fontSize=16;" vertex="1" parent="Cas5xVYIjRuZcFgZDSWn-21">
          <mxGeometry y="30" width="140" height="30" as="geometry" />
        </mxCell>
        <mxCell id="Cas5xVYIjRuZcFgZDSWn-23" value="ID_C" style="text;strokeColor=none;fillColor=none;align=left;verticalAlign=middle;spacingLeft=4;spacingRight=4;overflow=hidden;points=[[0,0.5],[1,0.5]];portConstraint=eastwest;rotatable=0;whiteSpace=wrap;html=1;fontSize=16;" vertex="1" parent="Cas5xVYIjRuZcFgZDSWn-21">
          <mxGeometry y="60" width="140" height="30" as="geometry" />
        </mxCell>
        <mxCell id="Cas5xVYIjRuZcFgZDSWn-29" value="" style="endArrow=classic;html=1;rounded=0;fontSize=12;startSize=8;endSize=8;curved=1;entryX=1;entryY=0.5;entryDx=0;entryDy=0;exitX=0;exitY=0.5;exitDx=0;exitDy=0;" edge="1" parent="1" source="Cas5xVYIjRuZcFgZDSWn-15" target="yGFAPYOFmnMAALgUmyOV-8">
          <mxGeometry width="50" height="50" relative="1" as="geometry">
            <mxPoint x="230" y="-1120" as="sourcePoint" />
            <mxPoint x="280" y="-1170" as="targetPoint" />
          </mxGeometry>
        </mxCell>
        <mxCell id="Cas5xVYIjRuZcFgZDSWn-30" value="" style="endArrow=classic;html=1;rounded=0;fontSize=12;startSize=8;endSize=8;curved=1;entryX=0.001;entryY=0.694;entryDx=0;entryDy=0;entryPerimeter=0;exitX=0.993;exitY=0.333;exitDx=0;exitDy=0;exitPerimeter=0;" edge="1" parent="1" source="Cas5xVYIjRuZcFgZDSWn-14" target="yGFAPYOFmnMAALgUmyOV-15">
          <mxGeometry width="50" height="50" relative="1" as="geometry">
            <mxPoint x="427.64" y="-1160" as="sourcePoint" />
            <mxPoint x="477.64" y="-1210" as="targetPoint" />
          </mxGeometry>
        </mxCell>
        <mxCell id="Cas5xVYIjRuZcFgZDSWn-31" value="" style="endArrow=classic;html=1;rounded=0;fontSize=12;startSize=8;endSize=8;entryX=0.466;entryY=1.062;entryDx=0;entryDy=0;entryPerimeter=0;exitX=0.398;exitY=-0.003;exitDx=0;exitDy=0;exitPerimeter=0;" edge="1" parent="1" source="Cas5xVYIjRuZcFgZDSWn-17" target="yGFAPYOFmnMAALgUmyOV-17">
          <mxGeometry width="50" height="50" relative="1" as="geometry">
            <mxPoint x="800" y="-950" as="sourcePoint" />
            <mxPoint x="720" y="-900" as="targetPoint" />
            <Array as="points" />
          </mxGeometry>
        </mxCell>
        <mxCell id="Cas5xVYIjRuZcFgZDSWn-33" value="" style="endArrow=classic;html=1;rounded=0;fontSize=12;startSize=8;endSize=8;entryX=1;entryY=0.5;entryDx=0;entryDy=0;exitX=0.406;exitY=0.991;exitDx=0;exitDy=0;exitPerimeter=0;" edge="1" parent="1" source="Cas5xVYIjRuZcFgZDSWn-19" target="yGFAPYOFmnMAALgUmyOV-28">
          <mxGeometry width="50" height="50" relative="1" as="geometry">
            <mxPoint x="920" y="-860" as="sourcePoint" />
            <mxPoint x="940" y="-650" as="targetPoint" />
            <Array as="points">
              <mxPoint x="787" y="-730" />
              <mxPoint x="787" y="-615" />
            </Array>
          </mxGeometry>
        </mxCell>
        <mxCell id="Cas5xVYIjRuZcFgZDSWn-35" value="" style="endArrow=classic;html=1;rounded=0;fontSize=12;startSize=8;endSize=8;curved=1;entryX=0.496;entryY=0.978;entryDx=0;entryDy=0;entryPerimeter=0;exitX=0.5;exitY=0;exitDx=0;exitDy=0;" edge="1" parent="1" source="Cas5xVYIjRuZcFgZDSWn-21" target="yGFAPYOFmnMAALgUmyOV-35">
          <mxGeometry width="50" height="50" relative="1" as="geometry">
            <mxPoint x="-100" y="-950" as="sourcePoint" />
            <mxPoint x="-50" y="-1000" as="targetPoint" />
          </mxGeometry>
        </mxCell>
        <mxCell id="Cas5xVYIjRuZcFgZDSWn-36" value="" style="endArrow=classic;html=1;rounded=0;fontSize=12;startSize=8;endSize=8;entryX=0;entryY=0.5;entryDx=0;entryDy=0;exitX=0.477;exitY=1.065;exitDx=0;exitDy=0;exitPerimeter=0;" edge="1" parent="1" source="Cas5xVYIjRuZcFgZDSWn-23" target="yGFAPYOFmnMAALgUmyOV-28">
          <mxGeometry width="50" height="50" relative="1" as="geometry">
            <mxPoint x="240" y="-570" as="sourcePoint" />
            <mxPoint x="290" y="-620" as="targetPoint" />
            <Array as="points">
              <mxPoint x="-73" y="-615" />
            </Array>
          </mxGeometry>
        </mxCell>
        <mxCell id="Cas5xVYIjRuZcFgZDSWn-37" value="Contenir" style="swimlane;fontStyle=0;childLayout=stackLayout;horizontal=1;startSize=30;horizontalStack=0;resizeParent=1;resizeParentMax=0;resizeLast=0;collapsible=1;marginBottom=0;whiteSpace=wrap;html=1;fontSize=16;rounded=1;" vertex="1" parent="1">
          <mxGeometry x="130" y="-1040" width="140" height="90" as="geometry" />
        </mxCell>
        <mxCell id="Cas5xVYIjRuZcFgZDSWn-38" value="ID_M" style="text;strokeColor=none;fillColor=none;align=left;verticalAlign=middle;spacingLeft=4;spacingRight=4;overflow=hidden;points=[[0,0.5],[1,0.5]];portConstraint=eastwest;rotatable=0;whiteSpace=wrap;html=1;fontSize=16;" vertex="1" parent="Cas5xVYIjRuZcFgZDSWn-37">
          <mxGeometry y="30" width="140" height="30" as="geometry" />
        </mxCell>
        <mxCell id="Cas5xVYIjRuZcFgZDSWn-39" value="&lt;div&gt;ID_A&lt;/div&gt;" style="text;strokeColor=none;fillColor=none;align=left;verticalAlign=middle;spacingLeft=4;spacingRight=4;overflow=hidden;points=[[0,0.5],[1,0.5]];portConstraint=eastwest;rotatable=0;whiteSpace=wrap;html=1;fontSize=16;" vertex="1" parent="Cas5xVYIjRuZcFgZDSWn-37">
          <mxGeometry y="60" width="140" height="30" as="geometry" />
        </mxCell>
        <mxCell id="Cas5xVYIjRuZcFgZDSWn-41" value="" style="endArrow=classic;html=1;rounded=0;fontSize=12;startSize=8;endSize=8;entryX=1;entryY=0.5;entryDx=0;entryDy=0;exitX=0;exitY=0.5;exitDx=0;exitDy=0;" edge="1" parent="1" source="Cas5xVYIjRuZcFgZDSWn-39" target="yGFAPYOFmnMAALgUmyOV-26">
          <mxGeometry width="50" height="50" relative="1" as="geometry">
            <mxPoint x="190" y="-990" as="sourcePoint" />
            <mxPoint x="240" y="-1040" as="targetPoint" />
            <Array as="points">
              <mxPoint x="80" y="-965" />
              <mxPoint x="80" y="-1075" />
            </Array>
          </mxGeometry>
        </mxCell>
        <mxCell id="Cas5xVYIjRuZcFgZDSWn-43" value="" style="endArrow=classic;html=1;rounded=0;fontSize=12;startSize=8;endSize=8;curved=1;entryX=0;entryY=0.5;entryDx=0;entryDy=0;exitX=1;exitY=0.5;exitDx=0;exitDy=0;" edge="1" parent="1" source="Cas5xVYIjRuZcFgZDSWn-38" target="yGFAPYOFmnMAALgUmyOV-11">
          <mxGeometry width="50" height="50" relative="1" as="geometry">
            <mxPoint x="310" y="-910" as="sourcePoint" />
            <mxPoint x="360" y="-960" as="targetPoint" />
          </mxGeometry>
        </mxCell>
        <mxCell id="Cas5xVYIjRuZcFgZDSWn-44" value="Détenir" style="swimlane;fontStyle=0;childLayout=stackLayout;horizontal=1;startSize=30;horizontalStack=0;resizeParent=1;resizeParentMax=0;resizeLast=0;collapsible=1;marginBottom=0;whiteSpace=wrap;html=1;fontSize=16;rounded=1;" vertex="1" parent="1">
          <mxGeometry x="353" y="-840" width="140" height="90" as="geometry" />
        </mxCell>
        <mxCell id="Cas5xVYIjRuZcFgZDSWn-45" value="ID_A" style="text;strokeColor=none;fillColor=none;align=left;verticalAlign=middle;spacingLeft=4;spacingRight=4;overflow=hidden;points=[[0,0.5],[1,0.5]];portConstraint=eastwest;rotatable=0;whiteSpace=wrap;html=1;fontSize=16;" vertex="1" parent="Cas5xVYIjRuZcFgZDSWn-44">
          <mxGeometry y="30" width="140" height="30" as="geometry" />
        </mxCell>
        <mxCell id="Cas5xVYIjRuZcFgZDSWn-46" value="ID_C" style="text;strokeColor=none;fillColor=none;align=left;verticalAlign=middle;spacingLeft=4;spacingRight=4;overflow=hidden;points=[[0,0.5],[1,0.5]];portConstraint=eastwest;rotatable=0;whiteSpace=wrap;html=1;fontSize=16;" vertex="1" parent="Cas5xVYIjRuZcFgZDSWn-44">
          <mxGeometry y="60" width="140" height="30" as="geometry" />
        </mxCell>
        <mxCell id="Cas5xVYIjRuZcFgZDSWn-48" value="" style="endArrow=classic;html=1;rounded=0;fontSize=12;startSize=8;endSize=8;curved=1;entryX=0.536;entryY=1.033;entryDx=0;entryDy=0;entryPerimeter=0;exitX=0.54;exitY=-0.001;exitDx=0;exitDy=0;exitPerimeter=0;" edge="1" parent="1" source="Cas5xVYIjRuZcFgZDSWn-44" target="yGFAPYOFmnMAALgUmyOV-32">
          <mxGeometry width="50" height="50" relative="1" as="geometry">
            <mxPoint x="370" y="-860" as="sourcePoint" />
            <mxPoint x="420" y="-910" as="targetPoint" />
          </mxGeometry>
        </mxCell>
        <mxCell id="Cas5xVYIjRuZcFgZDSWn-49" value="" style="endArrow=classic;html=1;rounded=0;fontSize=12;startSize=8;endSize=8;curved=1;entryX=0.5;entryY=0;entryDx=0;entryDy=0;exitX=0.544;exitY=0.996;exitDx=0;exitDy=0;exitPerimeter=0;" edge="1" parent="1" source="Cas5xVYIjRuZcFgZDSWn-46" target="yGFAPYOFmnMAALgUmyOV-27">
          <mxGeometry width="50" height="50" relative="1" as="geometry">
            <mxPoint x="430" y="-750" as="sourcePoint" />
            <mxPoint x="450" y="-840" as="targetPoint" />
          </mxGeometry>
        </mxCell>
        <mxCell id="Cas5xVYIjRuZcFgZDSWn-52" value="Consulter" style="swimlane;fontStyle=0;childLayout=stackLayout;horizontal=1;startSize=30;horizontalStack=0;resizeParent=1;resizeParentMax=0;resizeLast=0;collapsible=1;marginBottom=0;whiteSpace=wrap;html=1;fontSize=16;rounded=1;" vertex="1" parent="1">
          <mxGeometry x="353" y="-460" width="140" height="90" as="geometry" />
        </mxCell>
        <mxCell id="Cas5xVYIjRuZcFgZDSWn-53" value="ID_C" style="text;strokeColor=none;fillColor=none;align=left;verticalAlign=middle;spacingLeft=4;spacingRight=4;overflow=hidden;points=[[0,0.5],[1,0.5]];portConstraint=eastwest;rotatable=0;whiteSpace=wrap;html=1;fontSize=16;" vertex="1" parent="Cas5xVYIjRuZcFgZDSWn-52">
          <mxGeometry y="30" width="140" height="30" as="geometry" />
        </mxCell>
        <mxCell id="Cas5xVYIjRuZcFgZDSWn-54" value="ID_F" style="text;strokeColor=none;fillColor=none;align=left;verticalAlign=middle;spacingLeft=4;spacingRight=4;overflow=hidden;points=[[0,0.5],[1,0.5]];portConstraint=eastwest;rotatable=0;whiteSpace=wrap;html=1;fontSize=16;" vertex="1" parent="Cas5xVYIjRuZcFgZDSWn-52">
          <mxGeometry y="60" width="140" height="30" as="geometry" />
        </mxCell>
        <mxCell id="Cas5xVYIjRuZcFgZDSWn-56" value="" style="endArrow=classic;html=1;rounded=0;fontSize=12;startSize=8;endSize=8;curved=1;entryX=0.457;entryY=1.041;entryDx=0;entryDy=0;entryPerimeter=0;exitX=0.51;exitY=-0.002;exitDx=0;exitDy=0;exitPerimeter=0;" edge="1" parent="1" source="Cas5xVYIjRuZcFgZDSWn-52" target="yGFAPYOFmnMAALgUmyOV-31">
          <mxGeometry width="50" height="50" relative="1" as="geometry">
            <mxPoint x="360" y="-380" as="sourcePoint" />
            <mxPoint x="410" y="-430" as="targetPoint" />
          </mxGeometry>
        </mxCell>
        <mxCell id="Cas5xVYIjRuZcFgZDSWn-57" value="" style="endArrow=classic;html=1;rounded=0;fontSize=12;startSize=8;endSize=8;curved=1;exitX=0.516;exitY=0.996;exitDx=0;exitDy=0;exitPerimeter=0;entryX=0.463;entryY=-0.001;entryDx=0;entryDy=0;entryPerimeter=0;" edge="1" parent="1" source="Cas5xVYIjRuZcFgZDSWn-54" target="yGFAPYOFmnMAALgUmyOV-22">
          <mxGeometry width="50" height="50" relative="1" as="geometry">
            <mxPoint x="420" y="-310" as="sourcePoint" />
            <mxPoint x="470" y="-360" as="targetPoint" />
          </mxGeometry>
        </mxCell>
        <mxCell id="Cas5xVYIjRuZcFgZDSWn-58" value="Contenir" style="swimlane;fontStyle=0;childLayout=stackLayout;horizontal=1;startSize=30;horizontalStack=0;resizeParent=1;resizeParentMax=0;resizeLast=0;collapsible=1;marginBottom=0;whiteSpace=wrap;html=1;fontSize=16;rounded=1;" vertex="1" parent="1">
          <mxGeometry x="100" y="-350" width="140" height="90" as="geometry" />
        </mxCell>
        <mxCell id="Cas5xVYIjRuZcFgZDSWn-59" value="ID_F" style="text;strokeColor=none;fillColor=none;align=left;verticalAlign=middle;spacingLeft=4;spacingRight=4;overflow=hidden;points=[[0,0.5],[1,0.5]];portConstraint=eastwest;rotatable=0;whiteSpace=wrap;html=1;fontSize=16;" vertex="1" parent="Cas5xVYIjRuZcFgZDSWn-58">
          <mxGeometry y="30" width="140" height="30" as="geometry" />
        </mxCell>
        <mxCell id="Cas5xVYIjRuZcFgZDSWn-60" value="ID_S" style="text;strokeColor=none;fillColor=none;align=left;verticalAlign=middle;spacingLeft=4;spacingRight=4;overflow=hidden;points=[[0,0.5],[1,0.5]];portConstraint=eastwest;rotatable=0;whiteSpace=wrap;html=1;fontSize=16;" vertex="1" parent="Cas5xVYIjRuZcFgZDSWn-58">
          <mxGeometry y="60" width="140" height="30" as="geometry" />
        </mxCell>
        <mxCell id="Cas5xVYIjRuZcFgZDSWn-62" value="" style="endArrow=classic;html=1;rounded=0;fontSize=12;startSize=8;endSize=8;curved=1;entryX=0;entryY=0.5;entryDx=0;entryDy=0;exitX=1.001;exitY=0.453;exitDx=0;exitDy=0;exitPerimeter=0;" edge="1" parent="1" source="Cas5xVYIjRuZcFgZDSWn-60" target="yGFAPYOFmnMAALgUmyOV-23">
          <mxGeometry width="50" height="50" relative="1" as="geometry">
            <mxPoint x="370" y="-70" as="sourcePoint" />
            <mxPoint x="420" y="-120" as="targetPoint" />
          </mxGeometry>
        </mxCell>
        <mxCell id="Cas5xVYIjRuZcFgZDSWn-63" value="" style="endArrow=classic;html=1;rounded=0;fontSize=12;startSize=8;endSize=8;entryX=0;entryY=0.5;entryDx=0;entryDy=0;exitX=0.001;exitY=0.41;exitDx=0;exitDy=0;exitPerimeter=0;" edge="1" parent="1" source="Cas5xVYIjRuZcFgZDSWn-59" target="yGFAPYOFmnMAALgUmyOV-42">
          <mxGeometry width="50" height="50" relative="1" as="geometry">
            <mxPoint x="70" y="-240" as="sourcePoint" />
            <mxPoint x="430" y="-50" as="targetPoint" />
            <Array as="points">
              <mxPoint x="60" y="-308" />
              <mxPoint x="60" y="-85" />
            </Array>
          </mxGeometry>
        </mxCell>
        <mxCell id="Cas5xVYIjRuZcFgZDSWn-64" value="" style="rounded=0;whiteSpace=wrap;html=1;fillColor=#FFFF33;strokeColor=#d6b656;opacity=10;" vertex="1" parent="1">
          <mxGeometry x="-160" y="-500" width="1060" height="500" as="geometry" />
        </mxCell>
        <mxCell id="Cas5xVYIjRuZcFgZDSWn-66" value="" style="rounded=0;whiteSpace=wrap;html=1;strokeColor=#b85450;opacity=10;fillColor=#33FF33;" vertex="1" parent="1">
          <mxGeometry x="-160" y="-1340" width="1060" height="840" as="geometry" />
        </mxCell>
      </root>
    </mxGraphModel>
  </diagram>
</mxfile>
